<svg width="99" height="133" viewBox="0 0 99 133" fill="none" xmlns="http://www.w3.org/2000/svg">
<g filter="url(#filter0_d)">
<path d="M54.1837 0L2.0068 15.069L0.802721 15.8621L0 17.4483V19.0345L0.401361 20.6207L1.60544 21.8103L2.80952 22.6034L4.01361 23H4.81633L54.1837 9.51724L55.3878 9.12069L57.3946 7.93103L58.1973 7.13793L58.5986 6.34483L59 5.55172V4.36207V3.56897L58.5986 2.37931L57.7959 1.18966L56.9932 0.396552L55.7891 0H54.1837Z" transform="translate(44.5739 116.415) scale(0.5)" fill="#00B3FF" stroke="#00B3FF"/>
<path d="M172.5 68C172.5 68 163.553 78.0773 157.616 84.0661C157.033 84.6545 156.346 84.4293 156.346 84.4293C156.346 84.4293 149.75 82.7972 150.783 80.2956C151.154 79.3971 152.475 78.4698 152.475 78.4698C152.475 78.4698 156.553 74.1099 159.176 71.3066L164 66L165.5 64L165.685 62.3186L164.804 58.7004L159.5 49L155 42L147.848 33.6944L138.5 25.5L130.5 19.5L122.5 15.5L115 12.5L106.5 10L98.5 9L86.7546 8.35529L76.5 9L66.5 11L57.5 14.5L48 19L37.5196 26.0729L32.5 31L25.5 39.5L21 46.5L16.5 54L14 60.5L12 67L10.5 73L9.5 79L9 85.5V92L9.5 98.5L10.5 105.5L12 111.5L14.5 117.5L17 123L20.5 129.5L25 135.5L31 142.5L37.5 149.5L43.5 156.5L47 161.5L51 167.5L53.5 172.5L55 177.5L56 181.5L57 186.5V192V198V200.5L58 202H60L67 200.5L76 198.5L89.5 196L98 194.5L107.651 193.178L117.802 192.359L126.892 192.034L132.214 193.946L135 196.5L137 201L137.5 206L137.134 209.324L134.717 212.33L131.946 214.66L127.008 216.009L107.529 219.9L91.7306 223.554L72.8455 227.147L56.8579 230.535L54.2307 230.631L52 230L51.0714 226.259L52.6695 223.92L57 222L64 220.5L72.5 219L86 216.5L99 214L113.5 211.5L126.5 209L128 207V204.5L127 201L122.962 200.309L117.5 200.5L109.5 202L96.5 204.5L76 208.5L64 210.5L56.8646 212.311L52 212.5L49.5 211.5L48.5859 208.803L48 205.5V198L47.5 192L47 186.5L45.5 179L44 175.5L41.5 171.5L37.5 165.5L32.5 159L27.5951 152.748L20.9611 144.472L12.7923 133.009L5.96741 121.785L2 110.5L0.5 101L0 94V85.5L0.5 77.5L2.82918 67.0219L5.85696 57.7979L9.87873 48.6834L15.9432 39.2907L21.2918 31.8313L32.5999 20.5009L42.4214 13.5341L54.7538 6.60545L64.7289 2.81277L71.4527 1.13711L79 0H85.5H91.5L96.6664 0.568887L101.656 0.941694L108.594 1.88231L115 3.5L121.5 6L130 10L137.5 14.5L148.003 23.148L156.5 31.5L160.5 36.5L164.864 43.6164L170.286 53.7708L173.774 63.2092L173.5 65.6942L172.5 68Z" transform="translate(0 9.50993) scale(0.5) rotate(-6.28373)" fill="#00B3FF" stroke="#00B3FF" stroke-width="1.6"/>
<path d="M9.375 93.875V23.5625L18.2812 19.3438H18.75V54.6406L44.2031 19.3438H44.6719L52.9219 23.2344L32.0156 51.0781C39.2031 51.2344 44.8594 53.3281 48.9844 57.3594C53.2031 61.4844 55.3125 67.0312 55.3125 74V89.6562L46.4062 93.875H45.9375V74C45.9375 69.8125 44.8125 66.4219 42.5625 63.8281C39.7812 60.6094 36.375 59 32.3438 59C28.25 59 24.8438 60.6094 22.125 63.8281C19.875 66.4844 18.75 69.875 18.75 74V89.6562L9.84375 93.875H9.375Z" transform="translate(57.0739 30.9147) scale(0.5)" fill="#00B3FF"/>
<path d="M58.944 28.84C60.096 28.84 60.992 29.224 61.632 29.992C62.272 30.696 62.592 31.656 62.592 32.872V93.448C62.592 94.664 62.24 95.656 61.536 96.424C60.896 97.128 59.968 97.48 58.752 97.48C57.536 97.48 56.48 96.936 55.584 95.848L15.744 42.568V93.448C15.744 94.664 15.392 95.656 14.688 96.424C14.048 97.128 13.152 97.48 12 97.48C10.848 97.48 9.952 97.128 9.312 96.424C8.672 95.656 8.352 94.664 8.352 93.448V32.872C8.352 31.656 8.672 30.696 9.312 29.992C10.016 29.224 10.976 28.84 12.192 28.84C13.472 28.84 14.56 29.384 15.456 30.472L55.2 83.752V32.872C55.2 31.656 55.52 30.696 56.16 29.992C56.864 29.224 57.792 28.84 58.944 28.84Z" transform="translate(34.7489 32.0856) scale(0.5) rotate(-0.570205)" fill="#00B3FF"/>
</g>
<defs>
<filter id="filter0_d" x="2.08873" y="4.01457" width="90.1352" height="128.15" filterUnits="userSpaceOnUse" color-interpolation-filters="sRGB">
<feFlood flood-opacity="0" result="BackgroundImageFix"/>
<feColorMatrix in="SourceAlpha" type="matrix" values="0 0 0 0 0 0 0 0 0 0 0 0 0 0 0 0 0 0 255 0"/>
<feOffset dy="4"/>
<feGaussianBlur stdDeviation="2"/>
<feColorMatrix type="matrix" values="0 0 0 0 0 0 0 0 0 0 0 0 0 0 0 0 0 0 0.25 0"/>
<feBlend mode="normal" in2="BackgroundImageFix" result="effect1_dropShadow"/>
<feBlend mode="normal" in="SourceGraphic" in2="effect1_dropShadow" result="shape"/>
</filter>
</defs>
</svg>
